<?xml version="1.0" encoding="utf-8"?>
<!-- Generator: Adobe Illustrator 22.0.1, SVG Export Plug-In . SVG Version: 6.00 Build 0)  -->
<svg version="1.1" xmlns="http://www.w3.org/2000/svg" xmlns:xlink="http://www.w3.org/1999/xlink" x="0px" y="0px"
	 viewBox="0 0 1271 976" style="enable-background:new 0 0 1271 976;" xml:space="preserve">
<style type="text/css">
	.st0{fill:none;}
	.st1{fill:#FBBC04;}
	.st2{fill:#4285F4;}
	.st3{fill:#EA4335;}
	.st4{fill:#5F6368;}
</style>
<g id="content">
	<g>
		<rect id="bounding_box_2_" x="500.2" y="199.5" class="st0" width="265.2" height="265.2"/>
		<g id="logo_x5F_admob_x5F_192px">
			<g id="icon_x5F_admob_x5F_192px_2_">
				<path class="st1" d="M627.3,210.9c1.8-0.4,8.7-0.3,10.4-0.4c47.3-0.4,112.9,39.9,116.7,116.4v95.6c0,17.2-14.2,31.1-31.5,31.1
					c-12.4,0-29.3-15.9-29.3-31.1V327c-1.8-25.2-22.2-53.6-56.6-55.8c-2.1-0.1-7-0.2-9.7,0.1"/>
				<path class="st2" d="M754.3,423.3c0,16.8-13.6,30.4-30.4,30.4c-16.8,0-30.4-13.6-30.4-30.4c0-16.8,13.6-30.4,30.4-30.4
					C740.7,392.9,754.3,406.5,754.3,423.3z"/>
				<path class="st3" d="M628.9,452.6c17.4,0,31.5-13.8,31.5-30.9s-14.4-29.5-31.8-29.5c-0.1,0-0.2,0-0.3,0
					c-29.9-2.1-57.9-28.4-55.9-64.5c0,0,0-0.2,0-0.6c1.7-28.3,25.9-54,56.5-55.8l0,0c0,0,0,0,0,0c17.4,0,31.5-12.5,31.5-29.6
					s-14.1-30.9-31.5-30.9c-0.7,0-1.4,0-2.1,0c-52.8,1.8-115,45.8-115.6,120.4v0.5c0,75.7,66.4,120.9,115.9,120.9H628.9z"/>
			</g>
		</g>
	</g>
	<g>
		<path class="st4" d="M292.1,641.3c0,26.3-20.4,45.7-45.4,45.7c-25,0-45.4-19.4-45.4-45.7c0-26.5,20.4-45.7,45.4-45.7
			C271.7,595.6,292.1,614.8,292.1,641.3z M272.2,641.3c0-16.4-11.8-27.7-25.5-27.7c-13.7,0-25.5,11.2-25.5,27.7
			c0,16.3,11.8,27.7,25.5,27.7C260.4,669,272.2,657.6,272.2,641.3z"/>
		<path class="st4" d="M390.7,641.3c0,26.3-20.4,45.7-45.4,45.7c-25,0-45.4-19.4-45.4-45.7c0-26.5,20.4-45.7,45.4-45.7
			C370.3,595.6,390.7,614.8,390.7,641.3z M370.8,641.3c0-16.4-11.8-27.7-25.5-27.7s-25.5,11.2-25.5,27.7c0,16.3,11.8,27.7,25.5,27.7
			S370.8,657.6,370.8,641.3z"/>
		<path class="st4" d="M485.4,598.5v81.9c0,33.7-19.7,47.6-43,47.6c-21.9,0-35.1-14.9-40.1-27l17.3-7.3c3.1,7.4,10.6,16.3,22.8,16.3
			c14.9,0,24.1-9.3,24.1-26.8v-6.6h-0.7c-4.5,5.5-13,10.4-23.8,10.4c-22.6,0-43.3-19.9-43.3-45.5c0-25.8,20.7-45.8,43.3-45.8
			c10.8,0,19.3,4.8,23.8,10.2h0.7v-7.4H485.4z M467.9,641.5c0-16.1-10.6-27.9-24.1-27.9c-13.7,0-25.2,11.8-25.2,27.9
			c0,15.9,11.5,27.5,25.2,27.5C457.3,669,467.9,657.4,467.9,641.5z"/>
		<path class="st4" d="M518.4,550v134.3h-19.9V550L518.4,550z"/>
		<path class="st4" d="M594,656.2l15.5,10.3c-4.9,7.5-16.8,20.4-37.5,20.5c-25.7,0.2-44.5-19.8-44.6-45.4
			c-0.2-27.2,18.5-45.8,41.8-46c23.5-0.2,35,18.6,38.9,28.8l2.1,5.2l-60.3,25.7c4.7,9.1,11.9,13.8,22,13.7
			C581.9,668.9,588.9,663.9,594,656.2z M546.5,640.1l40.3-17.2c-2.3-5.7-9-9.6-16.8-9.6C559.8,613.3,545.8,622.4,546.5,640.1z"/>
		<path class="st4" d="M129.6,687c-38.7,0-71.2-31.8-71.2-70.9c0-39.1,32.5-70.9,71.2-70.9c21.4,0,36.6,8.5,48.1,19.6l-13.5,13.7
			c-8.2-7.8-19.3-13.8-34.6-13.8c-28.2,0-50.3,23-50.3,51.6c0,28.5,22.1,51.6,50.3,51.6c18.3,0,28.8-7.4,35.4-14.2
			c5.5-5.5,9.1-13.5,10.4-24.4h-45.9v-19.4l64.5,0c0.7,3.5,1,7.6,1,12.1c0,14.5-3.9,32.5-16.6,45.3C166.2,680.1,150.5,687,129.6,687
			z"/>
	</g>
	<g>
		<path class="st4" d="M661,684.1l47.2-125.3h18.2l47.2,125.3h-17.8l-12.1-33.9h-52.7l-12.2,33.9H661z M696.5,635.2h41.6l-20.5-56.5
			H717L696.5,635.2z"/>
		<path class="st4" d="M818.8,686.9c-11.1,0-20.6-4.4-28.7-13.1c-8-8.7-12.1-19.6-12.1-32.5c0-12.9,4-23.8,12.1-32.5
			c8-8.7,17.6-13.1,28.7-13.1c6.5,0,12.4,1.4,17.6,4.2c5.2,2.8,9.1,6.3,11.6,10.5h0.7l-0.7-11.9v-39.5h16.1v125.3h-15.4v-11.9H848
			c-2.6,4.2-6.4,7.7-11.6,10.5C831.2,685.5,825.4,686.9,818.8,686.9z M821.5,672.2c7.6,0,14-2.8,19.3-8.4c5.3-5.6,8-13.1,8-22.6
			c0-9.4-2.7-17-8-22.6c-5.3-5.6-11.8-8.4-19.3-8.4c-7.5,0-13.9,2.8-19.2,8.5c-5.4,5.7-8,13.2-8,22.5c0,9.3,2.7,16.8,8,22.5
			C807.6,669.4,814,672.2,821.5,672.2z"/>
		<path class="st4" d="M886.5,684.1V558.9h16.1l43.6,76.3h0.7l43.6-76.3h16.1v125.3h-16.1v-74.4l0.7-21h-0.7l-39.2,68.8h-9.4
			l-39.2-68.8h-0.7l0.7,21v74.4H886.5z"/>
		<path class="st4" d="M1036.5,608.6c8.3-8.7,18.8-13,31.7-13c12.8,0,23.4,4.3,31.7,13c8.3,8.7,12.4,19.6,12.4,32.6
			c0,13.1-4.1,23.9-12.4,32.6c-8.3,8.7-18.8,13-31.7,13c-12.8,0-23.4-4.3-31.7-13c-8.3-8.7-12.4-19.6-12.4-32.6
			C1024.1,628.2,1028.2,617.3,1036.5,608.6z M1048.5,663.8c5.5,5.7,12.1,8.5,19.7,8.5c7.6,0,14.1-2.8,19.7-8.5
			c5.5-5.7,8.3-13.1,8.3-22.5c0-9.3-2.8-16.8-8.3-22.5c-5.5-5.7-12.1-8.5-19.7-8.5c-7.6,0-14.1,2.8-19.7,8.5
			c-5.5,5.7-8.3,13.2-8.3,22.5C1040.2,650.6,1042.9,658.1,1048.5,663.8z"/>
		<path class="st4" d="M1171.4,686.9c-6.5,0-12.4-1.4-17.6-4.2c-5.2-2.8-9.1-6.3-11.6-10.5h-0.7v11.9h-15.4V558.9h16.1v39.5
			l-0.7,11.9h0.7c2.6-4.2,6.4-7.7,11.6-10.5c5.2-2.8,11.1-4.2,17.6-4.2c11.1,0,20.6,4.4,28.7,13.1c8,8.7,12.1,19.6,12.1,32.5
			c0,12.9-4,23.8-12.1,32.5C1192,682.6,1182.5,686.9,1171.4,686.9z M1168.8,672.2c7.5,0,13.9-2.8,19.2-8.5c5.4-5.7,8-13.1,8-22.5
			c0-9.3-2.7-16.8-8-22.5c-5.4-5.7-11.8-8.5-19.2-8.5c-7.6,0-14,2.8-19.3,8.4c-5.3,5.6-8,13.1-8,22.6c0,9.4,2.7,17,8,22.6
			C1154.7,669.4,1161.2,672.2,1168.8,672.2z"/>
	</g>
</g>
<g id="Layer_2">
</g>
</svg>
