<svg width="810" height="240" xmlns="http://www.w3.org/2000/svg" xmlns:xlink="http://www.w3.org/1999/xlink">
 <title>Python Central</title>
 <metadata id="metadata8">image/svg+xml</metadata>
 <defs>
  <clipPath id="clipPath16">
   <path d="m-225.548782,1400.701294l1280.000443,0l0,-1024l-1280.000443,0l0,1024z" id="path18"/>
  </clipPath>
  <clipPath id="clipPath82">
   <path d="m387.399994,653l21.001007,0l0,21l-21.001007,0l0,-21zm21,0l-21,0l0,-21l21,0l21,0l0,21c0,11.596985 -9.402008,21 -21,21l0,0l0,-21zm-42,0l21,0l0,21l-21,0l0,-21zm-21,0l21,0l0,21l-21,0l0,-21zm-21,0l21.001007,0l0,21l-21.001007,0l0,-21zm-21,0l21,0l0,21c-11.597992,0 -21,-9.403015 -21,-21m63,0l-21,0l0,-21l21,0l21,0l0,21l-21,0zm-42,0l0,-21l0,-21l21,0l0,21l0,21l-21,0zm-21,-21l21,0l0,21l-21,0l0,-21zm105,-21l21,0l0,21.000977l-21,0l0,-21.000977zm-21,0l21.001007,0l0,21.000977l-21.001007,0l0,-21.000977zm-63,21l-21,0l0,-21.000977l21,0l0,21.000977zm84,-21l-21,0l0,-21l21,0l21,0l0,21l-21,0zm-84,0l-21,0l0,-21l21,0l0,-21l21,0l0,21l0,21l-21,0zm84,-42l21,0l0,21l-21,0l0,-21zm-21,0l21.001007,0l0,21l-21.001007,0l0,-21zm-21,0l21,0l0,21l-21,0l0,-21zm-21,0l21,0l0,21l-21,0l0,-21zm-42,0l21,0l0,21l-21,0l0,-21zm105,0l-21,0l0,-21l21,0c11.597992,0 21,9.401978 21,21l0,0l-21,0zm-42,0l-21,0l0,-21l21,0l21,0l0,21l-21,0zm-42,0l-21,0l0,-21l21,0l0,-21l21,0l0,21l0,21l-21,0zm-21,-42l21,0l0,21l-21,0l0,-21zm21,0l0,-21c11.596985,0 21,9.403015 21,21l0,0l-21,0zm-21,0c0,-11.596985 9.402008,-21 21,-21l0,0l0,21l-21,0z" id="path84"/>
  </clipPath>
  <linearGradient x1="-0.401871" y1="1.176403" x2="0.716252" y2="0.337811" id="linearGradient90" spreadMethod="pad">
   <stop id="stop92" offset="0" stop-color="#63a2d4"/>
   <stop id="stop94" offset="1" stop-color="#3f709c"/>
  </linearGradient>
  <linearGradient x1="0.161439" y1="0.753921" x2="0.813669" y2="0.264749" id="linearGradient110" spreadMethod="pad">
   <stop id="stop112" offset="0" stop-color="#fee87a"/>
   <stop id="stop114" offset="1" stop-color="#ffd549"/>
  </linearGradient>
  <clipPath id="clipPath122">
   <path d="m-225.548782,1400.701294l1280.000443,0l0,-1024l-1280.000443,0l0,1024z" id="path124"/>
  </clipPath>
  <clipPath id="clipPath144">
   <path d="m-225.548782,1400.701294l1280.000443,0l0,-1024l-1280.000443,0l0,1024z" id="path146"/>
  </clipPath>
  <clipPath id="clipPath224">
   <path d="m121.451202,1026.701416l126.000046,0l0,-168.000427l-126.000046,0l0,168.000427z" id="path226"/>
  </clipPath>
  <linearGradient x1="0.773589" y1="0.209662" x2="0.210057" y2="0.807696" id="linearGradient232" spreadMethod="pad">
   <stop id="stop234" offset="0" stop-color="#ffd549"/>
   <stop id="stop236" offset="1" stop-color="#fee87a"/>
  </linearGradient>
  <clipPath id="clipPath330">
   <path d="m37.451202,1026.701416l126,0l0,-168.000427l-126,0l0,168.000427z" id="path332"/>
  </clipPath>
  <linearGradient x1="-0.479163" y1="1.131882" x2="0.781208" y2="0.318528" id="linearGradient338" spreadMethod="pad">
   <stop id="stop340" offset="0" stop-color="#63a2d4"/>
   <stop id="stop342" offset="1" stop-color="#3f709c"/>
  </linearGradient>
 </defs>
 <g>
  <title>Layer 1</title>
  <g transform="matrix(1.32268 0 0 -1.36141 -45.8448 1372.62)" id="g10">
   <g id="g12">
    <g clip-path="url(#clipPath16)" id="g14">
     <g id="g20">
      <path d="m302.111206,958.912048c2.413025,-0.634949 5.460999,-0.888977 9.143982,-0.888977c13.335022,0 21.463013,6.603943 21.463013,18.16095c0,11.430054 -8.127991,16.891113 -20.192993,16.891113c-4.825989,0 -8.508972,-0.381165 -10.414001,-0.889038l0,-33.274048zm-11.049042,41.274048c5.334015,0.890015 12.319061,1.651978 21.209015,1.651978c10.922058,0 18.923035,-2.5401 24.003052,-7.113037c4.57196,-4.062988 7.492981,-10.286072 7.492981,-17.906067c0,-7.746948 -2.286011,-13.842834 -6.604004,-18.287903c-5.968994,-6.223022 -15.367004,-9.397949 -26.161987,-9.397949c-3.302002,0 -6.350037,0.127014 -8.890015,0.761902l0,-34.290039l-11.049042,0l0,84.581116z" id="path22" fill-rule="nonzero" fill="#6b6c6c"/>
     </g>
     <g id="g24">
      <path d="m355.197205,977.073059l13.335022,-36.320923c1.523987,-4.064087 3.047974,-8.890076 4.062988,-12.574097l0.255005,0c1.143005,3.684021 2.411987,8.38208 3.937012,12.828003l12.190979,36.067017l11.812012,0l-16.765015,-43.813965c-8,-21.082031 -13.460999,-31.75 -21.080994,-38.480957c-5.588013,-4.699097 -10.921997,-6.604065 -13.716003,-7.112061l-2.794006,9.270996c2.794006,0.889038 6.476013,2.666992 9.778015,5.46106c3.049011,2.412964 6.731995,6.730957 9.398987,12.445923c0.507996,1.143005 0.888,2.031982 0.888,2.666016c0,0.635925 -0.252991,1.524963 -0.888,2.921936l-22.606995,56.641052l12.192993,0z" id="path26" fill-rule="nonzero" fill="#6b6c6c"/>
     </g>
     <g id="g28">
      <path d="m416.790222,991.805115l0,-14.732056l16.002014,0l0,-8.51001l-16.002014,0l0,-33.145996c0,-7.619995 2.158997,-11.937012 8.381958,-11.937012c3.048035,0 4.82605,0.254028 6.476013,0.762085l0.509033,-8.51001c-2.158997,-0.760986 -5.588013,-1.523071 -9.906006,-1.523071c-5.207031,0 -9.39801,1.778015 -12.065002,4.697998c-3.048035,3.429016 -4.317993,8.890015 -4.317993,16.129028l0,33.526978l-9.525024,0l0,8.51001l9.525024,0l0,11.430054l10.921997,3.302002z" id="path30" fill-rule="nonzero" fill="#6b6c6c"/>
     </g>
     <g id="g32">
      <path d="m437.744202,1005.775085l11.177002,0l0,-38.480957l0.254028,0c1.776978,3.174927 4.570984,6.095947 8.000977,8.000977c3.301025,1.905029 7.237976,3.047974 11.429016,3.047974c8.255005,0 21.463013,-5.079956 21.463013,-26.162109l0,-36.574951l-11.176025,0l0,35.305054c0,9.906006 -3.682983,18.16095 -14.223999,18.16095c-7.237976,0 -12.825989,-5.079895 -14.986023,-11.04895c-0.633972,-1.651001 -0.760986,-3.302002 -0.760986,-5.334045l0,-37.083008l-11.177002,0l0,90.169067z" id="path34" fill-rule="nonzero" fill="#6b6c6c"/>
     </g>
     <g id="g36">
      <path d="m507.594238,946.211975c0,-13.461914 7.619995,-23.621948 18.541992,-23.621948c10.66803,0 18.669006,10.032959 18.669006,23.876099c0,10.412964 -5.207031,23.494995 -18.415039,23.494995c-13.080994,0 -18.795959,-12.192017 -18.795959,-23.749146m48.640991,0.635132c0,-22.733032 -15.875,-32.639038 -30.606995,-32.639038c-16.51001,0 -29.46405,12.191895 -29.46405,31.623047c0,20.445984 13.58905,32.510986 30.480042,32.510986c17.652954,0 29.591003,-12.82605 29.591003,-31.494995" id="path38" fill-rule="nonzero" fill="#6b6c6c"/>
     </g>
     <g id="g40">
      <path d="m562.712219,960.436035c0,6.47699 -0.127014,11.557007 -0.507996,16.637024l9.906006,0l0.634949,-10.160034l0.254028,0c3.047974,5.715088 10.159973,11.430054 20.320007,11.430054c8.508972,0 21.71698,-5.079956 21.71698,-26.162109l0,-36.575989l-11.175964,0l0,35.433044c0,9.906067 -3.683044,18.161011 -14.223999,18.161011c-7.238037,0 -12.953003,-5.206909 -14.986023,-11.429932c-0.507019,-1.397034 -0.760986,-3.302124 -0.760986,-5.207031l0,-36.957092l-11.177002,0l0,44.831055z" id="path42" fill-rule="nonzero" fill="#6b6c6c"/>
     </g>
     <g id="g44">
      <path d="m353.701233,836.907043c-3.429016,-1.651001 -11.557007,-3.682983 -21.843994,-3.682983c-29.590027,0 -44.830048,18.541016 -44.830048,42.926025c0,29.208923 20.828033,45.338013 46.735992,45.338013c10.032043,0 17.652039,-1.905029 21.081055,-3.81012l-4.064026,-15.239929c-3.809021,1.651001 -9.27002,3.174927 -16.255981,3.174927c-15.240051,0 -27.177002,-9.269897 -27.177002,-28.319946c0,-17.14502 10.159973,-27.940002 27.303955,-27.940002c5.968994,0 12.320007,1.143005 16.256042,2.792969l2.794006,-15.238953z" id="path46" fill-rule="nonzero" fill="#45739e"/>
     </g>
     <g id="g48">
      <path d="m394.213196,872.71991c0,4.699097 -2.031982,12.57312 -10.921997,12.57312c-8.127991,0 -11.429993,-7.49292 -11.937012,-12.57312l22.859009,0zm-22.731995,-13.207886c0.507019,-8.000977 8.507996,-11.811035 17.525024,-11.811035c6.604004,0 11.937988,0.889038 17.144958,2.666992l2.540039,-13.080933c-6.350037,-2.666992 -14.096985,-3.936035 -22.478027,-3.936035c-21.083008,0 -33.146973,12.19104 -33.146973,31.621948c0,15.748108 9.778015,33.147095 31.367981,33.147095c20.065979,0 27.685974,-15.621033 27.685974,-30.988037c0,-3.302063 -0.380981,-6.223022 -0.634949,-7.619995l-40.004028,0z" id="path50" fill-rule="nonzero" fill="#45739e"/>
     </g>
     <g id="g52">
      <path d="m416.82019,876.911072c0,7.746887 -0.253967,14.223999 -0.507996,19.81189l16.764038,0l0.888977,-8.635864l0.380005,0c2.539978,4.063965 8.763977,10.032959 19.177002,10.032959c12.700012,0 22.226013,-8.509094 22.226013,-26.796997l0,-36.703003l-19.304993,0l0,34.416992c0,8.000977 -2.794006,13.461975 -9.778015,13.461975c-5.333984,0 -8.509033,-3.682983 -9.907043,-7.238892c-0.506958,-1.270142 -0.633972,-3.048157 -0.633972,-4.826172l0,-35.813904l-19.304016,0l0,42.291016z" id="path54" fill-rule="nonzero" fill="#45739e"/>
     </g>
     <g id="g56">
      <path d="m505.212219,913.487122l0,-16.76416l13.843018,0l0,-14.223938l-13.843018,0l0,-22.477966c0,-7.494019 1.904968,-10.921997 7.619995,-10.921997c2.666992,0 3.937012,0.126953 5.714966,0.507874l0.127014,-14.604858c-2.412964,-0.889038 -7.112,-1.651062 -12.445984,-1.651062c-6.223022,0 -11.429993,2.158081 -14.60498,5.333984c-3.55603,3.682983 -5.334045,9.651917 -5.334045,18.414063l0,25.399963l-8.255005,0l0,14.223938l8.255005,0l0,11.557129l18.923035,5.207031z" id="path58" fill-rule="nonzero" fill="#45739e"/>
     </g>
     <g id="g60">
      <path d="m523.372192,876.2771c0,9.14386 -0.127014,15.112976 -0.507996,20.44696l16.51001,0l0.762024,-11.429932l0.506958,0c3.175049,9.143921 10.66803,12.953979 16.764038,12.953979c1.777954,0 2.666992,-0.127075 4.065002,-0.380981l0,-18.161011c-1.525024,0.253906 -3.048035,0.507874 -5.207031,0.507874c-7.112976,0 -11.937988,-3.809875 -13.208008,-9.778992c-0.253967,-1.27002 -0.380981,-2.793945 -0.380981,-4.317993l0,-31.495972l-19.304016,0l0,41.656067z" id="path62" fill-rule="nonzero" fill="#45739e"/>
     </g>
     <g id="g64">
      <path d="m596.397217,863.958069c-10.160034,0 -18.033997,-2.413086 -18.033997,-9.779053c0,-4.952026 3.302979,-7.367065 7.619995,-7.367065c4.698975,0 8.763,3.176025 10.03302,7.113037c0.253967,1.015991 0.380981,2.159058 0.380981,3.302002l0,6.731079zm18.669006,-14.351135c0,-5.840881 0.253967,-11.555847 1.015991,-14.985901l-17.398987,0l-1.143005,6.223022l-0.381042,0c-4.063965,-4.953064 -10.414001,-7.619019 -17.779968,-7.619019c-12.572998,0 -20.065979,9.142944 -20.065979,19.047974c0,16.130005 14.479004,23.750061 36.448975,23.750061l0,0.762024c0,3.428894 -1.778015,8.12793 -11.302979,8.12793c-6.350037,0 -13.080994,-2.159058 -17.14502,-4.699036l-3.55603,12.446106c4.319031,2.412964 12.827026,5.588013 24.130005,5.588013c20.70105,0 27.17804,-12.192017 27.17804,-26.924072l0,-21.717102z" id="path66" fill-rule="nonzero" fill="#45739e"/>
     </g>
     <path d="m623.574219,924.789978l19.304016,0l0,-90.168945l-19.304016,0l0,90.168945z" id="path68" fill-rule="nonzero" fill="#45739e"/>
     <g id="g70">
      <path d="m619.267212,993.546082l10.586975,0l0,-2.232056l-3.941956,0l0,-10.695923l-2.702026,0l0,10.695923l-3.942993,0l0,2.232056z" id="path72" fill-rule="nonzero" fill="#6b6c6c"/>
     </g>
     <g id="g74">
      <path d="m630.40918,993.546082l3.942017,0l2.27002,-10.064941l0.034973,0l2.27002,10.064941l3.960999,0l0,-12.927979l-2.486023,0l0,10.802979l-0.034973,0l-2.448975,-10.802979l-2.629028,0l-2.357971,10.802979l-0.037048,0l0,-10.802979l-2.484009,0l0,12.927979z" id="path76" fill-rule="nonzero" fill="#6b6c6c"/>
     </g>
    </g>
   </g>
   <g id="g78"/>
   <g id="g98">
    <g id="g100">
     <g id="g106">
      <g id="g108">
       <path d="m207.051193,981.701111l21,0l0,21l-21,0l0,-21zm21,0l21.000031,0c0,11.596863 -9.403061,21 -21.000031,21l0,0l0,-21zm-42,0l21,0l0,21l-21,0l0,-21zm-21,0l21.001022,0l0,21l-21.001022,0l0,-21zm-21.000015,0l21.000015,0l0,21l-21.000015,0l0,-21zm-21,0l0,-21l21,0l21.000015,0l-21.000015,0l0,-21l21.000015,0l0,21l21,0l21,0l21,0l21.000031,0l0,21l-21.000031,0l-21,0l-21,0l-21,0l-21.000015,0l0,21c-11.596954,0 -21,-9.403137 -21,-21m105.000015,-21l0,-21c11.59697,0 21.000031,9.401978 21.000031,21l0,0l-21.000031,0zm-21,0c0,-11.598022 9.402023,-21 21,-21l0,0l0,21l-21,0zm-84.000015,-21l21,0l0,21.000854l-21,0l0,-21.000854zm21,0l-21,0l0,-21l21,0l21.000015,0l0,21l-21.000015,0zm63.000015,-63l-21,0l0,-21.000122l21,0l-21,0l-21,0l0,-20.999939l21,0l21,0l0,20.999939l21,0l0,-20.999939c11.59697,0 21.000031,9.403015 21.000031,20.999939l0,0l0,21.000122c0,11.596863 -9.403061,21 -21.000031,21l0,0c-11.597977,0 -21,-9.403137 -21,-21m-42,-21.000122l21.001022,0l0,21.000122l-21.001022,0l0,-21.000122zm-21.000015,21.000122l0,-21.000122l0,21.000122l-21,0l0,-21.000122c0,-11.596924 9.403046,-20.999939 21,-20.999939l0,0l0,20.999939l21.000015,0l0,21.000122l-21.000015,0zm105.000046,-21.000122c0,0 0,0 0,0m-42.000031,-20.999939l21,0l0,20.999939l-21,0l0,-20.999939zm-42,20.999939l-21.000015,0l0,-20.999939l21.000015,0l0,20.999939z" id="path116" fill="url(#linearGradient110)"/>
      </g>
     </g>
    </g>
   </g>
   <g id="g118">
    <g clip-path="url(#clipPath122)" id="g120">
     <g id="g126">
      <path d="m102.051178,855.700989c0,-3.313965 -2.685974,-6 -6,-6c-3.313957,0 -6,2.686035 -6,6c0,3.314087 2.686043,6 6,6c3.314026,0 6,-2.685913 6,-6" id="path128" fill-rule="nonzero" fill="#ffffff"/>
     </g>
     <g id="g130">
      <path d="m240.051193,960.701111c0,-3.314087 -2.685989,-6 -6,-6c-3.31398,0 -6,2.685913 -6,6c0,3.313965 2.68602,6 6,6c3.314011,0 6,-2.686035 6,-6" id="path132" fill-rule="nonzero" fill="#ffffff"/>
     </g>
    </g>
   </g>
   <path d="m165.051193,834.70105l-21.000015,0l0,20.999939l21.000015,0l0,-20.999939z" id="path134" fill-rule="nonzero" fill="#fee45d"/>
   <path d="m165.051193,855.700989l-21.000015,0l0,21.000122l21.000015,0l0,-21.000122z" id="path136" fill-rule="nonzero" fill="#ffcd47"/>
   <path d="m144.051178,855.700989l-21,0l0,21.000122l21,0l0,-21.000122z" id="path138" fill-rule="nonzero" fill="#fee45d"/>
   <g id="g140">
    <g clip-path="url(#clipPath144)" id="g142">
     <g id="g148">
      <path d="m123.051178,855.700989l0,0l21,0l0,-20.999939c-11.597961,0 -21,9.402039 -21,20.999939" id="path150" fill-rule="nonzero" fill="#ffcd47"/>
     </g>
     <path d="m207.051193,834.70105l21,0l0,20.999939l-21,0l0,-20.999939z" id="path152" fill-rule="nonzero" fill="#ffcd47"/>
     <path d="m207.051193,855.700989l21,0l0,21.000122l-21,0l0,-21.000122z" id="path154" fill-rule="nonzero" fill="#fee45d"/>
     <path d="m228.051193,855.700989l21.000031,0l0,21.000122l-21.000031,0l0,-21.000122z" id="path156" fill-rule="nonzero" fill="#ffcd47"/>
     <g id="g158">
      <path d="m249.051224,855.700989l0,0l-21.000031,0l0,-20.999939c11.598007,0 21.000031,9.402039 21.000031,20.999939" id="path160" fill-rule="nonzero" fill="#fee45d"/>
     </g>
     <path d="m207.051193,1002.701111l21,0l0,-21l-21,0l0,21z" id="path162" fill-rule="nonzero" fill="#fee45d"/>
     <path d="m207.051193,981.701111l21,0l0,-21l-21,0l0,21z" id="path164" fill-rule="nonzero" fill="#ffcd47"/>
     <path d="m228.051193,981.701111l21.000031,0l0,-21l-21.000031,0l0,21z" id="path166" fill-rule="nonzero" fill="#fee45d"/>
     <g id="g168">
      <path d="m249.051224,981.701111l0,0l-21.000031,0l0,21c11.598007,0 21.000031,-9.401978 21.000031,-21" id="path170" fill-rule="nonzero" fill="#ffcd47"/>
     </g>
     <path d="m228.051193,960.701111l21.000031,0l0,-21l-21.000031,0l0,21z" id="path172" fill-rule="nonzero" fill="#ffcd47"/>
     <path d="m207.051193,960.701111l21,0l0,-21l-21,0l0,21z" id="path174" fill-rule="nonzero" fill="#fee45d"/>
     <path d="m207.051193,897.701111l21,0l0,-21l-21,0l0,21z" id="path176" fill-rule="nonzero" fill="#ffcd47"/>
     <path d="m228.051193,897.701111l21.000031,0l0,-21l-21.000031,0l0,21z" id="path178" fill-rule="nonzero" fill="#fee45d"/>
     <path d="m144.051178,876.701111l-21,0l0,21l21,0l0,-21z" id="path180" fill-rule="nonzero" fill="#ffcd47"/>
     <path d="m165.051193,876.701111l-21.000015,0l0,21l21.000015,0l0,-21z" id="path182" fill-rule="nonzero" fill="#fee45d"/>
     <path d="m165.051193,897.701111l-21.000015,0l0,21l21.000015,0l0,-21z" id="path184" fill-rule="nonzero" fill="#ffcd47"/>
     <path d="m144.051178,897.701111l-21,0l0,21l21,0l0,-21z" id="path186" fill-rule="nonzero" fill="#fee45d"/>
     <path d="m144.051178,918.701111l-21,0l0,21l21,0l0,-21z" id="path188" fill-rule="nonzero" fill="#ffcd47"/>
     <path d="m165.051193,918.701111l-21.000015,0l0,21l21.000015,0l0,-21z" id="path190" fill-rule="nonzero" fill="#fee45d"/>
     <path d="m165.051193,939.701111l-21.000015,0l0,21l21.000015,0l0,-21z" id="path192" fill-rule="nonzero" fill="#ffcd47"/>
     <path d="m144.051178,939.701111l-21,0l0,21l21,0l0,-21z" id="path194" fill-rule="nonzero" fill="#fee45d"/>
     <path d="m144.051178,960.701111l-21,0l0,21l21,0l0,-21z" id="path196" fill-rule="nonzero" fill="#ffcd47"/>
     <path d="m165.051193,960.701111l-21.000015,0l0,21l21.000015,0l0,-21z" id="path198" fill-rule="nonzero" fill="#fee45d"/>
     <path d="m165.051193,981.701111l-21.000015,0l0,21l21.000015,0l0,-21z" id="path200" fill-rule="nonzero" fill="#ffcd47"/>
     <path d="m144.051178,981.701111l-21,0l0,21l21,0l0,-21z" id="path202" fill-rule="nonzero" fill="#fee45d"/>
     <path d="m186.051193,960.701111l-21,0l0,21l21,0l0,-21z" id="path204" fill-rule="nonzero" fill="#ffcd47"/>
     <path d="m207.051193,960.701111l-21,0l0,21l21,0l0,-21z" id="path206" fill-rule="nonzero" fill="#fee45d"/>
     <path d="m207.051193,981.701111l-21,0l0,21l21,0l0,-21z" id="path208" fill-rule="nonzero" fill="#ffcd47"/>
     <path d="m186.051193,981.701111l-21,0l0,21l21,0l0,-21z" id="path210" fill-rule="nonzero" fill="#fee45d"/>
     <path d="m186.051193,834.70105l-21,0l0,20.999939l21,0l0,-20.999939z" id="path212" fill-rule="nonzero" fill="#ffcd47"/>
     <path d="m207.051193,834.70105l-21,0l0,20.999939l21,0l0,-20.999939z" id="path214" fill-rule="nonzero" fill="#fee45d"/>
     <path d="m207.051193,855.700989l-21,0l0,21.000122l21,0l0,-21.000122z" id="path216" fill-rule="nonzero" fill="#ffcd47"/>
     <path d="m186.051193,855.700989l-21,0l0,21.000122l21,0l0,-21.000122z" id="path218" fill-rule="nonzero" fill="#fee45d"/>
     <g id="g220">
      <g id="g222"/>
      <g id="g238">
       <g clip-path="url(#clipPath224)" id="g240" opacity="0.5">
        <g id="g242">
         <g id="g244">
          <g id="g246">
           <g id="g248">
            <path d="m228.051193,897.701111l-21,0l0,-21l21,0l0,21zm21.000031,-21l-21.000031,0l0,21l21.000031,0l0,-21zm-21.000031,84l-21,0l0,-21l21,0l0,21zm21.000031,-21l-21.000031,0l0,21l21.000031,0l0,-21zm-126.000046,-84.000122l21,0l0,21.000122l-21,0l0,-21.000122zm21,0l21.000015,0l0,21.000122l-21.000015,0l0,-21.000122zm-21,0c0,-11.5979 9.402039,-20.999939 21,-20.999939l0,20.999939l-21,0zm21,0l21.000015,0l0,-20.999939l-21.000015,0l0,20.999939zm105.000046,21.000122l-21.000031,0l0,-21.000122l21.000031,0l0,21.000122zm-21.000031,0l-21,0l0,-21.000122l21,0l0,21.000122zm21.000031,-21.000122l0,0l-21.000031,0l0,-20.999939c11.598007,0 21.000031,9.402039 21.000031,20.999939m-21.000031,-20.999939l-21,0l0,20.999939l21,0l0,-20.999939zm21.000031,147.000061l-21.000031,0l0,-21l21.000031,0l0,21zm-21.000031,0l-21,0l0,-21l21,0l0,21zm21.000031,0c0,11.598022 -9.402023,21 -21.000031,21l0,-21l21.000031,0zm-21.000031,0l-21,0l0,21l21,0l0,-21zm-21,-126.000122l-21,0l0,-20.999939l21,0l0,20.999939zm-21,0l-21,0l0,-20.999939l21,0l0,20.999939zm21,21.000122l-21,0l0,-21.000122l21,0l0,21.000122zm-21,-21.000122l-21,0l0,21.000122l21,0l0,-21.000122zm21,126.000122l-21,0l0,-21l21,0l0,21zm-21,0l-21,0l0,-21l21,0l0,21zm21,21l-21,0l0,-21l21,0l0,21zm-21,-21l-21,0l0,21l21,0l0,-21zm-21,-84l-21.000015,0l0,-21l21.000015,0l0,21zm-21.000015,0l-21,0l0,-21l21,0l0,21zm21.000015,21l-21.000015,0l0,-21l21.000015,0l0,21zm-21.000015,-21l-21,0l0,21l21,0l0,-21zm21.000015,42l-21.000015,0l0,-21l21.000015,0l0,21zm-21.000015,0l-21,0l0,-21l21,0l0,21zm21.000015,21l-21.000015,0l0,-21l21.000015,0l0,21zm-21.000015,-21l-21,0l0,21l21,0l0,-21zm21.000015,42l-21.000015,0l0,-21l21.000015,0l0,21zm-21.000015,0l-21,0l0,-21l21,0l0,21zm21.000015,21l-21.000015,0l0,-21l21.000015,0l0,21zm-21.000015,-21l-21,0l0,21l21,0l0,-21z" id="path250" fill="url(#linearGradient232)"/>
           </g>
          </g>
         </g>
        </g>
       </g>
      </g>
     </g>
     <path d="m81.051178,876.701111l-20.999996,0l0,21l20.999996,0l0,-21z" id="path252" fill-rule="nonzero" fill="#457fb3"/>
     <path d="m60.051182,876.701111l-21.000004,0l0,21l21.000004,0l0,-21z" id="path254" fill-rule="nonzero" fill="#45739e"/>
     <path d="m60.051182,897.701111l-21.000004,0l0,21l21.000004,0l0,-21z" id="path256" fill-rule="nonzero" fill="#457fb3"/>
     <path d="m81.051178,897.701111l-20.999996,0l0,21l20.999996,0l0,-21z" id="path258" fill-rule="nonzero" fill="#45739e"/>
     <path d="m81.051178,918.701111l-20.999996,0l0,21l20.999996,0l0,-21z" id="path260" fill-rule="nonzero" fill="#457fb3"/>
     <path d="m60.051182,918.701111l-21.000004,0l0,21l21.000004,0l0,-21z" id="path262" fill-rule="nonzero" fill="#45739e"/>
     <path d="m60.051182,939.701111l-21.000004,0l0,21l21.000004,0l0,-21z" id="path264" fill-rule="nonzero" fill="#457fb3"/>
     <path d="m81.051178,939.701111l-20.999996,0l0,21l20.999996,0l0,-21z" id="path266" fill-rule="nonzero" fill="#45739e"/>
     <path d="m123.051178,876.701111l-21,0l0,21l21,0l0,-21z" id="path268" fill-rule="nonzero" fill="#457fb3"/>
     <path d="m102.051178,876.701111l-21,0l0,21l21,0l0,-21z" id="path270" fill-rule="nonzero" fill="#45739e"/>
     <path d="m102.051178,897.701111l-21,0l0,21l21,0l0,-21z" id="path272" fill-rule="nonzero" fill="#457fb3"/>
     <path d="m123.051178,897.701111l-21,0l0,21l21,0l0,-21z" id="path274" fill-rule="nonzero" fill="#45739e"/>
     <path d="m81.051178,834.70105l-20.999996,0l0,20.999939l20.999996,0l0,-20.999939z" id="path276" fill-rule="nonzero" fill="#457fb3"/>
     <path d="m60.051182,834.70105l-21.000004,0l0,20.999939l21.000004,0l0,-20.999939z" id="path278" fill-rule="nonzero" fill="#45739e"/>
     <path d="m60.051182,855.700989l-21.000004,0l0,21.000122l21.000004,0l0,-21.000122z" id="path280" fill-rule="nonzero" fill="#457fb3"/>
     <path d="m81.051178,855.700989l-20.999996,0l0,21.000122l20.999996,0l0,-21.000122z" id="path282" fill-rule="nonzero" fill="#45739e"/>
     <path d="m165.051193,876.701111l-21.000015,0l0,21l21.000015,0l0,-21z" id="path284" fill-rule="nonzero" fill="#457fb3"/>
     <path d="m144.051178,876.701111l-21,0l0,21l21,0l0,-21z" id="path286" fill-rule="nonzero" fill="#45739e"/>
     <path d="m144.051178,897.701111l-21,0l0,21l21,0l0,-21z" id="path288" fill-rule="nonzero" fill="#457fb3"/>
     <path d="m165.051193,897.701111l-21.000015,0l0,21l21.000015,0l0,-21z" id="path290" fill-rule="nonzero" fill="#45739e"/>
     <path d="m165.051193,918.701111l-21.000015,0l0,21l21.000015,0l0,-21z" id="path292" fill-rule="nonzero" fill="#457fb3"/>
     <path d="m144.051178,918.701111l-21,0l0,21l21,0l0,-21z" id="path294" fill-rule="nonzero" fill="#45739e"/>
     <path d="m144.051178,939.701111l-21,0l0,21l21,0l0,-21z" id="path296" fill-rule="nonzero" fill="#457fb3"/>
     <path d="m165.051193,939.701111l-21.000015,0l0,21l21.000015,0l0,-21z" id="path298" fill-rule="nonzero" fill="#45739e"/>
     <path d="m165.051193,960.701111l-21.000015,0l0,21l21.000015,0l0,-21z" id="path300" fill-rule="nonzero" fill="#457fb3"/>
     <path d="m144.051178,960.701111l-21,0l0,21l21,0l0,-21z" id="path302" fill-rule="nonzero" fill="#45739e"/>
     <path d="m144.051178,981.701111l-21,0l0,21l21,0l0,-21z" id="path304" fill-rule="nonzero" fill="#457fb3"/>
     <path d="m165.051193,981.701111l-21.000015,0l0,21l21.000015,0l0,-21z" id="path306" fill-rule="nonzero" fill="#45739e"/>
     <path d="m123.051178,960.701111l-21,0l0,21l21,0l0,-21z" id="path308" fill-rule="nonzero" fill="#457fb3"/>
     <path d="m102.051178,960.701111l-21,0l0,21l21,0l0,-21z" id="path310" fill-rule="nonzero" fill="#45739e"/>
     <path d="m102.051178,981.701111l-21,0l0,21l21,0l0,-21z" id="path312" fill-rule="nonzero" fill="#457fb3"/>
     <path d="m123.051178,981.701111l-21,0l0,21l21,0l0,-21z" id="path314" fill-rule="nonzero" fill="#45739e"/>
     <path d="m81.051178,960.701111l-20.999996,0l0,21l20.999996,0l0,-21z" id="path316" fill-rule="nonzero" fill="#457fb3"/>
     <path d="m60.051182,960.701111l-21.000004,0l0,21l21.000004,0l0,-21z" id="path318" fill-rule="nonzero" fill="#45739e"/>
     <path d="m81.051178,981.701111l-20.999996,0l0,21l20.999996,0l0,-21z" id="path320" fill-rule="nonzero" fill="#45739e"/>
     <g id="g322">
      <path d="m39.051178,981.701111l0,0l21.000004,0l0,21c-11.597961,0 -21.000004,-9.401978 -21.000004,-21" id="path324" fill-rule="nonzero" fill="#457fb3"/>
     </g>
     <g id="g326">
      <g id="g328"/>
      <g id="g344">
       <g clip-path="url(#clipPath330)" id="g346" opacity="0.5">
        <g id="g348">
         <g id="g350">
          <g id="g352">
           <g id="g354">
            <path d="m39.051178,960.701111l21.000004,0l0,21l-21.000004,0l0,-21zm21.000004,0l20.999996,0l0,21l-20.999996,0l0,-21zm-21.000004,21l0,0l21.000004,0l0,21c-11.597961,0 -21.000004,-9.401978 -21.000004,-21m21.000004,21l20.999996,0l0,-21l-20.999996,0l0,21zm20.999996,-63l-20.999996,0l0,-21l20.999996,0l0,21zm-20.999996,0l-21.000004,0l0,-21l21.000004,0l0,21zm20.999996,21l-20.999996,0l0,-21l20.999996,0l0,21zm-20.999996,-21l-21.000004,0l0,21l21.000004,0l0,-21zm20.999996,-42l-20.999996,0l0,-21l20.999996,0l0,21zm-20.999996,0l-21.000004,0l0,-21l21.000004,0l0,21zm20.999996,21l-20.999996,0l0,-21l20.999996,0l0,21zm-20.999996,-21l-21.000004,0l0,21l21.000004,0l0,-21zm20.999996,-42.000122l-20.999996,0l0,-20.999939l20.999996,0l0,20.999939zm-20.999996,0l-21.000004,0l0,-20.999939l21.000004,0l0,20.999939zm20.999996,21.000122l-20.999996,0l0,-21.000122l20.999996,0l0,21.000122zm-20.999996,-21.000122l-21.000004,0l0,21.000122l21.000004,0l0,-21.000122zm62.999996,126.000122l-21,0l0,-21l21,0l0,21zm-21,0l-21,0l0,-21l21,0l0,21zm21,21l-21,0l0,-21l21,0l0,21zm-21,-21l-21,0l0,21l21,0l0,-21zm21,-84l-21,0l0,-21l21,0l0,21zm-21,0l-21,0l0,-21l21,0l0,21zm21,21l-21,0l0,-21l21,0l0,21zm-21,-21l-21,0l0,21l21,0l0,-21zm63.000015,0l-21.000015,0l0,-21l21.000015,0l0,21zm-21.000015,0l-21,0l0,-21l21,0l0,21zm21.000015,21l-21.000015,0l0,-21l21.000015,0l0,21zm-21.000015,-21l-21,0l0,21l21,0l0,-21zm21.000015,42l-21.000015,0l0,-21l21.000015,0l0,21zm-21.000015,0l-21,0l0,-21l21,0l0,21zm21.000015,21l-21.000015,0l0,-21l21.000015,0l0,21zm-21.000015,-21l-21,0l0,21l21,0l0,-21zm21.000015,42l-21.000015,0l0,-21l21.000015,0l0,21zm-21.000015,0l-21,0l0,-21l21,0l0,21zm21.000015,21l-21.000015,0l0,-21l21.000015,0l0,21zm-21.000015,-21l-21,0l0,21l21,0l0,-21z" id="path356" fill="url(#linearGradient338)"/>
           </g>
          </g>
         </g>
        </g>
       </g>
      </g>
     </g>
    </g>
   </g>
  </g>
 </g>
</svg>
