<?xml version="1.0" encoding="utf-8"?>
<!-- Generator: Adobe Illustrator 22.0.1, SVG Export Plug-In . SVG Version: 6.00 Build 0)  -->
<svg version="1.1" id="Layer_1" xmlns="http://www.w3.org/2000/svg" xmlns:xlink="http://www.w3.org/1999/xlink" x="0px" y="0px"
	 viewBox="0 0 1247 200" style="enable-background:new 0 0 1247 200;" xml:space="preserve">
<style type="text/css">
	.st0{fill:#5F6368;}
	.st1{fill:none;}
	.st2{fill:#FBBC04;}
	.st3{fill:#4285F4;}
	.st4{fill:#EA4335;}
</style>
<g>
	<path class="st0" d="M778,151.4l36.6-97.1h14.1l36.6,97.1h-13.8l-9.4-26.3h-40.8l-9.5,26.3H778z M805.5,113.4h32.3l-15.9-43.8h-0.5
		L805.5,113.4z"/>
	<path class="st0" d="M900.2,153.5c-8.6,0-16-3.4-22.2-10.2c-6.2-6.8-9.4-15.2-9.4-25.2s3.1-18.4,9.4-25.2
		c6.2-6.8,13.6-10.2,22.2-10.2c5.1,0,9.6,1.1,13.6,3.3c4,2.2,7,4.9,9,8.1h0.5l-0.5-9.2V54.3h12.5v97.1h-11.9v-9.2h-0.5
		c-2,3.3-5,6-9,8.1C909.8,152.4,905.3,153.5,900.2,153.5z M902.2,142.1c5.9,0,10.9-2.2,15-6.5c4.1-4.3,6.2-10.2,6.2-17.5
		s-2.1-13.2-6.2-17.5c-4.1-4.3-9.1-6.5-15-6.5c-5.8,0-10.8,2.2-14.9,6.6c-4.2,4.4-6.2,10.2-6.2,17.4s2.1,13,6.2,17.4
		C891.5,139.9,896.4,142.1,902.2,142.1z"/>
	<path class="st0" d="M952.5,151.4V54.3H965l33.8,59.1h0.5l33.8-59.1h12.5v97.1H1033V93.7l0.5-16.3h-0.5l-30.4,53.3h-7.3L965,77.4
		h-0.5l0.5,16.3v57.6H952.5z"/>
	<path class="st0" d="M1068.6,92.8c6.4-6.7,14.6-10.1,24.6-10.1c9.9,0,18.1,3.4,24.5,10.1c6.4,6.7,9.6,15.2,9.6,25.3
		c0,10.1-3.2,18.6-9.6,25.3c-6.4,6.7-14.6,10.1-24.5,10.1c-9.9,0-18.1-3.4-24.6-10.1c-6.4-6.7-9.6-15.2-9.6-25.3
		C1059,108,1062.2,99.6,1068.6,92.8z M1077.9,135.6c4.3,4.4,9.4,6.6,15.3,6.6c5.9,0,11-2.2,15.3-6.6c4.3-4.4,6.4-10.2,6.4-17.4
		s-2.2-13-6.4-17.4c-4.3-4.4-9.4-6.6-15.3-6.6c-5.9,0-11,2.2-15.3,6.6c-4.3,4.4-6.4,10.2-6.4,17.4S1073.6,131.2,1077.9,135.6z"/>
	<path class="st0" d="M1173,153.5c-5.1,0-9.6-1.1-13.6-3.3c-4-2.2-7-4.9-9-8.1h-0.5v9.2h-11.9V54.3h12.5v30.6l-0.5,9.2h0.5
		c2-3.3,5-6,9-8.1c4-2.2,8.6-3.3,13.6-3.3c8.6,0,16,3.4,22.2,10.2c6.2,6.8,9.4,15.2,9.4,25.2s-3.1,18.4-9.4,25.2
		C1189.1,150.1,1181.6,153.5,1173,153.5z M1171,142.1c5.8,0,10.8-2.2,14.9-6.6c4.2-4.4,6.2-10.2,6.2-17.4s-2.1-13-6.2-17.4
		c-4.2-4.4-9.1-6.6-14.9-6.6c-5.9,0-10.9,2.2-15,6.5c-4.1,4.3-6.2,10.2-6.2,17.5s2.1,13.2,6.2,17.5
		C1160.1,140,1165.1,142.1,1171,142.1z"/>
</g>
<g>
	<path class="st0" d="M354.4,153.5c-30.3,0-55.7-24.7-55.7-54.9c0-30.3,25.5-54.9,55.7-54.9c16.8,0,28.7,6.6,37.7,15.1l-10.6,10.6
		c-6.4-6-15.1-10.7-27.1-10.7c-22.1,0-39.4,17.8-39.4,39.9c0,22.1,17.3,39.9,39.4,39.9c14.3,0,22.5-5.8,27.7-11
		c4.3-4.3,7.1-10.5,8.2-18.9h-35.9v-15h50.5c0.5,2.7,0.8,5.9,0.8,9.4c0,11.3-3.1,25.2-13,35.1C383.1,148.2,370.8,153.5,354.4,153.5z
		"/>
	<path class="st0" d="M483.9,118.1c0,20.4-15.7,35.4-34.9,35.4c-19.2,0-34.9-15-34.9-35.4c0-20.5,15.7-35.4,34.9-35.4
		C468.2,82.8,483.9,97.6,483.9,118.1z M468.6,118.1c0-12.7-9.1-21.4-19.6-21.4s-19.6,8.7-19.6,21.4c0,12.6,9.1,21.4,19.6,21.4
		S468.6,130.7,468.6,118.1z"/>
	<path class="st0" d="M562,118.1c0,20.4-15.7,35.4-34.9,35.4c-19.2,0-34.9-15-34.9-35.4c0-20.5,15.7-35.4,34.9-35.4
		C546.4,82.8,562,97.6,562,118.1z M546.8,118.1c0-12.7-9.1-21.4-19.6-21.4c-10.5,0-19.6,8.7-19.6,21.4c0,12.6,9.1,21.4,19.6,21.4
		C537.7,139.6,546.8,130.7,546.8,118.1z"/>
	<path class="st0" d="M638.2,84.9v63.5c0,26.1-15.4,36.9-33.6,36.9c-17.2,0-27.5-11.5-31.4-20.9l13.5-5.6
		c2.4,5.8,8.3,12.6,17.8,12.6c11.7,0,18.9-7.2,18.9-20.8v-5.1H623c-3.5,4.3-10.2,8-18.6,8c-17.7,0-33.9-15.4-33.9-35.2
		c0-20,16.2-35.5,33.9-35.5c8.4,0,15.1,3.8,18.6,7.9h0.5v-5.8H638.2z M624.6,118.3c0-12.5-8.3-21.6-18.9-21.6
		c-10.7,0-19.7,9.1-19.7,21.6c0,12.3,9,21.3,19.7,21.3C616.3,139.6,624.6,130.6,624.6,118.3z"/>
	<path class="st0" d="M665.5,47.4v104h-15.5v-104H665.5z"/>
	<path class="st0" d="M726.6,129.8l12.1,8c-3.9,5.8-13.3,15.7-29.5,15.7c-20.1,0-34.6-15.5-34.6-35.4c0-21,14.6-35.4,32.9-35.4
		c18.4,0,27.3,14.6,30.3,22.5l1.6,4L692,128.9c3.6,7.1,9.2,10.7,17.2,10.7C717.1,139.6,722.6,135.7,726.6,129.8z M689.5,117.1
		l31.6-13.1c-1.7-4.4-7-7.5-13.1-7.5C700.1,96.4,689.1,103.4,689.5,117.1z"/>
</g>
<g>
	<rect id="bounding_box_2_" x="28" y="-4.6" class="st1" width="206.4" height="206.4"/>
	<g id="logo_x5F_admob_x5F_192px">
		<g id="icon_x5F_admob_x5F_192px_2_">
			<path class="st2" d="M126.9,4.3C128.3,4,133.7,4,135,4c36.8-0.3,87.9,31,90.8,90.6v74.4c0,13.4-11.1,24.2-24.5,24.2
				c-9.7,0-22.8-12.4-22.8-24.2V94.6c-1.4-19.6-17.3-41.7-44.1-43.4c-1.7-0.1-5.4-0.2-7.5,0.1"/>
			<path class="st3" d="M225.7,169.5c0,13.1-10.6,23.6-23.6,23.6c-13.1,0-23.6-10.6-23.6-23.6s10.6-23.6,23.6-23.6
				C215.2,145.9,225.7,156.4,225.7,169.5z"/>
			<path class="st4" d="M128.2,192.3c13.5,0,24.5-10.8,24.5-24c0-13.3-11.2-22.9-24.8-22.9c-0.1,0-0.2,0-0.3,0
				c-23.3-1.6-45.1-22.1-43.5-50.2c0,0,0-0.1,0-0.4c1.3-22,20.2-42.1,44-43.4l0,0l0,0c13.5,0,24.5-9.7,24.5-23s-11-24-24.5-24
				c-0.6,0-1.1,0-1.6,0C85.5,5.7,37.1,39.9,36.6,97.9v0.4c0,58.9,51.7,94.1,90.2,94.1H128.2z"/>
		</g>
	</g>
</g>
</svg>
